<svg xmlns="http://www.w3.org/2000/svg" viewBox="0 0 681.22 676.2"><defs><style>.cls-1,.cls-2{fill:#6c63ff;}.cls-1,.cls-17,.cls-4{opacity:0.1;}.cls-1,.cls-15,.cls-4,.cls-6,.cls-7{isolation:isolate;}.cls-3{fill:#3f3d56;}.cls-5{fill:#46455b;}.cls-6,.cls-7{opacity:0.05;}.cls-16,.cls-7{fill:#fff;}.cls-8{fill:#2f2e41;}.cls-9{fill:#fbbebe;}.cls-10{fill:#f86d70;}.cls-11{fill:#bbbdc8;}.cls-12{fill:#a0616a;}.cls-13{fill:#f98a8d;}.cls-14{fill:#ffe9b3;}.cls-15{opacity:0.15;}</style></defs><title>bed</title><g id="Layer_2" data-name="Layer 2"><g id="Layer_1-2" data-name="Layer 1"><path class="cls-1" d="M594.14,92.68v374a92.64,92.64,0,0,1-92.62,92.68H127.42a92.31,92.31,0,0,1-57.65-20.11,92.66,92.66,0,0,1-35-72.57v-374c0-2.48.1-4.94.29-7.36A92.6,92.6,0,0,1,127.42,0h374a92.52,92.52,0,0,1,92.39,85.32C594.05,87.74,594.14,90.2,594.14,92.68Z"/><path class="cls-1" d="M321.48,294.65H594.14v14.08H321.48v97.63H594.14v14.07H321.48v139H307.41v-139H34.74V406.36H307.41V308.73H34.74V294.65H307.41V197H34.74V183H307.41V85.32H35a91.86,91.86,0,0,1,2.21-14.08H307.41V0h14.07V71.24H591.65a91.84,91.84,0,0,1,2.2,14.08H321.48V183H594.14V197H321.48Z"/><ellipse class="cls-2" cx="658.97" cy="599.1" rx="22.25" ry="4.28"/><ellipse class="cls-3" cx="658.6" cy="597.29" rx="2.59" ry="3.4"/><ellipse class="cls-3" cx="658.6" cy="593.14" rx="2.59" ry="3.4"/><ellipse class="cls-3" cx="658.6" cy="589" rx="2.59" ry="3.4"/><ellipse class="cls-3" cx="658.6" cy="584.86" rx="2.59" ry="3.4"/><ellipse class="cls-3" cx="658.6" cy="580.7" rx="2.59" ry="3.4"/><ellipse class="cls-3" cx="658.6" cy="576.56" rx="2.59" ry="3.4"/><ellipse class="cls-3" cx="658.6" cy="572.42" rx="2.59" ry="3.4"/><path class="cls-2" d="M668.29,544.05a11.48,11.48,0,0,0,1-1.42l-6.81-1.12,7.36,0a12.44,12.44,0,0,0,.24-9.83l-9.88,5.13,9.11-6.7a12.42,12.42,0,1,0-20.5,13.89,12.57,12.57,0,0,0-1.41,2.26l8.79,4.59-9.42-3.16a12.37,12.37,0,0,0,2,11.65,12.41,12.41,0,1,0,19.51,0,12.41,12.41,0,0,0,0-15.34Z"/><path class="cls-4" d="M646.13,551.72a12.39,12.39,0,0,0,2.63,7.67,12.41,12.41,0,1,0,19.51,0C670,557.28,646.13,550.33,646.13,551.72Z"/><rect class="cls-5" x="46.62" y="489.92" width="530.38" height="121.82"/><polygon class="cls-5" points="50.13 363.7 0 401.52 38.7 436.7 60.69 401.52 90.59 363.7 50.13 363.7"/><polygon class="cls-5" points="568.2 409.44 561.16 401.52 516.3 376.01 557.64 375.13 621.85 401.52 595.46 418.23 568.2 409.44"/><polygon class="cls-5" points="46.62 411.19 90.59 363.7 90.59 472.76 60.69 497.39 42.22 471.88 46.62 411.19"/><polygon class="cls-5" points="569.08 430.55 561.16 401.52 546.21 382.17 516.3 376.01 516.3 497.39 576.99 497.39 569.08 430.55"/><path class="cls-5" d="M100.31,331.15H511a13.69,13.69,0,0,1,13.68,13.68h0v125.3h-438V344.83A13.68,13.68,0,0,1,100.31,331.15Z"/><polygon class="cls-5" points="60.69 497.39 90.59 460.45 516.3 460.45 561.16 497.39 60.69 497.39"/><polygon class="cls-6" points="60.69 497.39 90.59 460.45 516.3 460.45 561.16 497.39 60.69 497.39"/><rect class="cls-5" y="401.52" width="60.69" height="210.22"/><rect class="cls-7" y="401.52" width="60.69" height="210.22"/><rect class="cls-5" x="561.16" y="401.52" width="60.69" height="210.22"/><rect class="cls-7" x="561.16" y="401.52" width="60.69" height="210.22"/><ellipse class="cls-8" cx="251.99" cy="269.59" rx="70.36" ry="92.79"/><rect class="cls-8" x="204.5" y="229.57" width="78.28" height="109.07"/><rect class="cls-4" x="204.5" y="229.57" width="78.28" height="109.07"/><path class="cls-9" d="M210.18,293.53a22.93,22.93,0,0,1-20.49,8.21c-.36,5.47,3.36,10.28,6.87,14.49l27.46,33a1.55,1.55,0,0,0,2,.83,1.48,1.48,0,0,0,.72-.61l42-39.8c-4.19,1.76-9.14-1-11.44-4.95s-2.52-8.64-2.73-13.19q-.47-10.2-.88-20.39c-.07-1.51-.22-3.18-1.34-4.2a5.73,5.73,0,0,0-3-1.14c-6.62-1.13-27.27-7-31.09-.07-1.76,3.18-1,9.37-1.76,13C215.29,284,213.61,289.25,210.18,293.53Z"/><path class="cls-4" d="M210.18,293.53a22.93,22.93,0,0,1-20.49,8.21c-.36,5.47,3.36,10.28,6.87,14.49l27.46,33a1.55,1.55,0,0,0,2,.83,1.48,1.48,0,0,0,.72-.61l42-39.8c-4.19,1.76-9.14-1-11.44-4.95s-2.52-8.64-2.73-13.19q-.47-10.2-.88-20.39c-.07-1.51-.22-3.18-1.34-4.2a5.73,5.73,0,0,0-3-1.14c-6.62-1.13-27.27-7-31.09-.07-1.76,3.18-1,9.37-1.76,13C215.29,284,213.61,289.25,210.18,293.53Z"/><circle class="cls-9" cx="240.56" cy="245.4" r="41.34"/><path class="cls-10" d="M225.61,328.64,219,307.73c-2.64-8.37-6.39-17.86-14.75-20.56-5.27-1.69-11-.14-16.46-.61-10.7-.92-21.11-9.43-31.11-5.53-12.32,4.78-12.21,23.69-23.14,31.12,0,17.67,5.71,34.08,8.79,51.47s4,36.16-4.08,51.89c-3.41,6.67-8.29,12.48-11.93,19a59,59,0,0,0-7,35.43q70,.87,140.08.42c-.43-6.05-3.13-12-3.57-18.07a12.58,12.58,0,0,1,.42-5.45c1-2.64,3.65-4.21,5.9-5.93a30.34,30.34,0,0,0,7.5-8.42c3.11-5.18,4.59-11.16,6-17l17.49-71.25c2.08-8.48,4.11-17.75.48-25.7-4-8.73-13.51-13.27-22.31-17.1-5.28-2.31-11.35-4.65-16.71-2.52-4.4,1.76-7.16,6-9.94,9.79A97.46,97.46,0,0,1,225.61,328.64Z"/><path class="cls-4" d="M133.05,318.42c-1.37,5.14-.61,10.62-1.62,15.83-1.69,8.72-8.05,15.65-12.31,23.42a53.25,53.25,0,0,0-4.66,39.51c1.07,3.88,3,8,6.74,9.46,2.69,1,5.7.39,8.58.64,3.8.33,7.75,2.22,11.26.72,4.33-1.85,5.2-7.48,5.67-12.17a143,143,0,0,1,7-31.92c3.51-10.34,8.34-20.61,8.27-31.54-.05-7.71-9.92-.62-16.36-5.18C138.34,322.07,135.43,309.54,133.05,318.42Z"/><path class="cls-10" d="M131.29,317.54c-1.37,5.14-.6,10.62-1.62,15.83-1.69,8.72-8,15.65-12.31,23.42a53.25,53.25,0,0,0-4.66,39.51c1.07,3.88,3,8,6.74,9.46,2.7,1,5.7.39,8.58.64,3.8.34,7.75,2.22,11.26.72,4.33-1.84,5.2-7.48,5.67-12.17a143,143,0,0,1,7-31.92c3.51-10.34,8.34-20.61,8.27-31.54,0-7.71-3.44-16.22-9.87-20.79C143.06,305.59,133.68,308.66,131.29,317.54Z"/><path class="cls-11" d="M191.48,269.17c5.28-2.95,10.48-6.15,15.91-8.9,8.5-4.25,18.05-7.56,24.73-14.07a2.8,2.8,0,0,1,3.95.09,2.91,2.91,0,0,1,.65,1.11A259.15,259.15,0,0,0,246.91,275c3.38,7.74,7.14,15.34,9.68,23.4,1.75,5.6,2.85,11.43,5,16.82,2.86,7,7.43,13.3,12,19.44a24.48,24.48,0,0,0,5.71,6.16c3.27,2.22,8.15,3.65,8.49,7.59-4.25,3.07-10,2.06-15.26,2a64.27,64.27,0,0,0-15.72,2.32,94,94,0,0,0-17.6,5.87,126,126,0,0,0-15.65,9.4l-46.77,31.38c-3.44-3.93-3.31-9.68-4-14.88A77.59,77.59,0,0,0,170,373.4l-4.66-15.7c-2.22-7.46-4.4-14.91-6.9-22.29-2.06-6.16-4.35-12.37-8.37-17.46-4.86-6.15-11.84-10.15-17.9-15.1-2.15-1.76-4.27-3.76-5.07-6.42a6.29,6.29,0,0,1,.7-5.21c1.29-1.85,3.13-1.58,5.17-1.91q7.47-1.19,14.81-3a178.57,178.57,0,0,0,28.38-9.62Q184,273.32,191.48,269.17Z"/><path class="cls-4" d="M193.4,275.68c4.63-2.57,9.14-5.38,13.88-7.76,7.42-3.71,15.74-6.59,21.57-12.25a2.44,2.44,0,0,1,3.44.06,2.52,2.52,0,0,1,.57,1,226.31,226.31,0,0,0,8.9,24c2.94,6.75,6.22,13.38,8.41,20.41,1.52,4.88,2.49,9.94,4.4,14.68,2.49,6.16,6.48,11.6,10.42,17a21.72,21.72,0,0,0,5,5.36c2.87,1.95,7.13,3.19,7.42,6.64-3.71,2.64-8.75,1.76-13.31,1.76a54.75,54.75,0,0,0-13.71,2A81.7,81.7,0,0,0,235,353.71a103.35,103.35,0,0,0-13.66,8.23l-40.81,27.33c-3-3.43-2.87-8.47-3.51-13a68.31,68.31,0,0,0-2.36-9.68l-4.07-13.69c-1.94-6.51-3.87-13-6-19.45-1.76-5.38-3.78-10.79-7.3-15.23-4.24-5.36-10.33-8.85-15.62-13.2-1.87-1.52-3.72-3.28-4.4-5.59a5.47,5.47,0,0,1,.62-4.54c1.11-1.63,2.72-1.39,4.5-1.67q6.51-1,12.92-2.64a155.54,155.54,0,0,0,24.76-8.39Q186.9,279.26,193.4,275.68Z"/><circle class="cls-11" cx="176.33" cy="307.97" r="3.52"/><circle class="cls-11" cx="213.84" cy="290.6" r="3.52"/><circle class="cls-11" cx="194.07" cy="346.28" r="3.52"/><circle class="cls-11" cx="231.58" cy="328.91" r="3.52"/><path class="cls-9" d="M139.67,368.4c3.51-1,7.22-2.12,9.8-4.72,2-2,3.12-4.74,4.53-7.22,2.81-4.95,7.25-9.34,12.84-10.43s12.14,2.14,13.34,7.7c.77,3.63-.74,7.31-2.24,10.71-2.26,5.08-4.8,10.41-9.44,13.48-4.07,2.68-9.25,3.27-13.24,6.06-3.52,2.46-5.73,6.36-8.8,9.39a23.24,23.24,0,0,1-14.9,6.65,5,5,0,0,1-2.5-.35,5.49,5.49,0,0,1-1.9-1.87c-2.59-3.52-5.21-7.14-6.58-11.3C115.8,372,129.32,371.36,139.67,368.4Z"/><path class="cls-9" d="M233.37,370.33c-1.18-7.09-1.34-14.82-5.72-20.52-3.67-4.76-9.77-7.17-15.76-7.57-1.76-.13-3.83.05-4.85,1.49a5.4,5.4,0,0,0-.66,3.36,40.54,40.54,0,0,0,9.55,24.52c2.19,2.57,4.73,4.91,6.26,7.92,1.34,2.6,1.83,5.56,3.07,8.2,1.62,3.44,4.4,6.15,6.53,9.32a26.86,26.86,0,0,1,4.49,15.33c2.32-3.79,2-8.53,2.26-13,.29-6.26,4.67-9.68,1.83-14.78S234.4,376.53,233.37,370.33Z"/><path class="cls-4" d="M265.84,363.27c-2.23,5.8-3.37,12-6,17.65a9.92,9.92,0,0,1-3.41,4.4c-2.82,1.76-6.54.67-9.34-1.08s-5.27-4.16-8.33-5.33C237.4,392.28,226.3,404,213,406.18c7.91,7.28,16.25,15.36,18,25.95.33,1.94.45,4,1.48,5.69,1.68,2.68,5.2,3.56,8.37,3.52,8-.06,15.43-4.31,22.15-8.8a20.4,20.4,0,0,0,6.07-5.35c1.52-2.25,2.17-5.11,2.74-7.83q5.83-27.72,11.65-55.46c1.06-5,.88-14.89-6.91-13.9C271.34,350.78,267.47,359,265.84,363.27Z"/><path class="cls-10" d="M267.6,363.27c-2.23,5.8-3.37,12-6,17.65a9.92,9.92,0,0,1-3.41,4.4c-2.82,1.76-6.54.67-9.34-1.08s-5.27-4.16-8.33-5.33c-1.37,13.37-12.47,25.13-25.73,27.27,7.91,7.28,16.25,15.36,18,25.95.33,1.94.45,4,1.48,5.69,1.67,2.68,5.2,3.56,8.37,3.52,8.05-.06,15.43-4.31,22.15-8.8a20.4,20.4,0,0,0,6.07-5.35c1.52-2.25,2.17-5.11,2.74-7.83q5.84-27.72,11.65-55.46c1.06-5,.88-14.89-6.91-13.9C273.1,350.78,269.23,359,267.6,363.27Z"/><path class="cls-10" d="M139.29,397.57c-.32,1.61-1.91,2.59-3.35,3.36-2.79,1.5-5.83,3.06-9,2.64s-5.77-2.75-7.82-5.21a19.63,19.63,0,0,1-2.64-3.83c-3.18-6.27-3.52-33,9.6-24.25,5.42,3.6,2.37,9.76,3,15.06a15.5,15.5,0,0,0,3.6,8.54C133.15,394.33,139.08,398.61,139.29,397.57Z"/><ellipse class="cls-8" cx="251.55" cy="217.25" rx="39.14" ry="18.47"/><path class="cls-4" d="M253.31,229.57c-21.18,0-38.41-7.92-39.1-17.86a9.9,9.9,0,0,0-1.76,5.54c0,10.2,17.52,18.47,39.14,18.47s39.14-8.27,39.14-18.47v-.61C285.67,224.13,270.84,229.57,253.31,229.57Z"/><ellipse class="cls-8" cx="423.51" cy="272.66" rx="96.75" ry="87.96"/><path class="cls-4" d="M423.51,337.75c-49,0-89.5-33.12-95.87-76.08a80,80,0,0,0-.88,11.87c0,48.58,43.32,88,96.75,88s96.75-39.38,96.75-88a81.34,81.34,0,0,0-.88-11.87C513,304.63,472.51,337.75,423.51,337.75Z"/><ellipse class="cls-8" cx="421.75" cy="275.74" rx="46.62" ry="62.89"/><ellipse class="cls-4" cx="421.75" cy="275.74" rx="46.62" ry="62.89"/><path class="cls-12" d="M400.31,307.62c-1.75,4.34-5.27,9-10.55,9.29,7,5.78,14.16,11.62,22.57,15.84s18.36,6.68,27.93,5.17c6.76-1.07,12.9-4,18.63-7.28,9.77-5.52,19.35-12.78,21.83-22.61a159.78,159.78,0,0,1-22-.41c-3.79-.33-7.67-.83-11-2.48a17.12,17.12,0,0,1-8.42-10.29c-1.31-4.16-1.28-8.53-1.05-12.83.13-2.5.23-5.27-1.69-7.19s-5.12-2.17-8-2.24a111.42,111.42,0,0,0-17.41,1,60.57,60.57,0,0,0-9,1.63c-3.82,1.16-3.45.71-2.53,3.91C402.57,288.94,404.32,297.73,400.31,307.62Z"/><path class="cls-4" d="M400.31,307.62c-1.75,4.34-5.27,9-10.55,9.29,7,5.78,14.16,11.62,22.57,15.84s18.36,6.68,27.93,5.17c6.76-1.07,12.9-4,18.63-7.28,9.77-5.52,19.35-12.78,21.83-22.61a159.78,159.78,0,0,1-22-.41c-3.79-.33-7.67-.83-11-2.48a17.12,17.12,0,0,1-8.42-10.29c-1.31-4.16-1.28-8.53-1.05-12.83.13-2.5.23-5.27-1.69-7.19s-5.12-2.17-8-2.24a111.42,111.42,0,0,0-17.41,1,60.57,60.57,0,0,0-9,1.63c-3.82,1.16-3.45.71-2.53,3.91C402.57,288.94,404.32,297.73,400.31,307.62Z"/><circle class="cls-12" cx="420.43" cy="257.27" r="41.34"/><path class="cls-13" d="M406.18,311.26c-2.7-3.24-5.48-6.54-9.08-8.74-5.89-3.62-13.19-3.85-20.09-4-7.49-.13-15.62-.06-21.54,4.52a34,34,0,0,0-6.59,7.68L323.8,346.82c-1,1.41-2,3-1.76,4.7a6.88,6.88,0,0,0,1.76,3.24l27.58,34.45c1.58,2,3.21,4,3.73,6.49a14,14,0,0,1-1,7.44c-3.34,9.49-9.68,18.47-9.1,28.47.42,6.53,3.83,12.52,8,17.59,9.58,11.55,23.38,19.06,37.82,23.16s29.59,5,44.6,5.09c28.3.19,58-2.9,81.43-18.86l-18.37-17.31c-3.64-3.43-7.45-7.13-8.7-12-.88-3.25-.46-6.68-.07-10,.74-6.1,1.48-12.24,3.45-18,5.48-16.18,19.56-27.69,29-41.95,1.18-1.76,2.32-3.78,2.19-5.92a10.67,10.67,0,0,0-2.09-4.93c-4.29-6.65-8.74-13.28-11.85-20.56-2.33-5.42-3.9-11.18-6.78-16.32s-7.44-9.78-13.19-10.86c-7.41-1.39-14.63,3.25-22.15,3.56-5.5.24-11.25-1.83-16.39.14-6.11,2.33-8.8,9.2-12.22,14.79-2.52,4.16-10.05,15.54-15.95,12.75-3.21-1.54-6.16-7-8.47-9.74Z"/><path class="cls-14" d="M439.11,339.22a7.06,7.06,0,0,0-4.59-.83,3.6,3.6,0,0,0-2.91,3.29l-2.54-.15a2.88,2.88,0,0,0-.88.05,1.42,1.42,0,1,0,.6,2.77h0a8.53,8.53,0,0,0-3.25,2.28,4.55,4.55,0,0,0,1.23,6.28,4.93,4.93,0,0,0,6.39-1.3,2.3,2.3,0,0,0,1.23,2.72c4.77,2.58,7.19-.92,7.84-5C443,344.9,443.92,341.6,439.11,339.22Z"/><path class="cls-15" d="M439.11,339.22a7.06,7.06,0,0,0-4.59-.83,3.6,3.6,0,0,0-2.91,3.29l-2.54-.15a2.88,2.88,0,0,0-.88.05,1.42,1.42,0,1,0,.6,2.77h0a8.53,8.53,0,0,0-3.25,2.28,4.55,4.55,0,0,0,1.23,6.28,4.93,4.93,0,0,0,6.39-1.3,2.3,2.3,0,0,0,1.23,2.72c4.77,2.58,7.19-.92,7.84-5C443,344.9,443.92,341.6,439.11,339.22Z"/><path class="cls-14" d="M452.09,336.23a7,7,0,0,0-4.59-.82,3.56,3.56,0,0,0-2.9,3.28l-2.54-.15a2.88,2.88,0,0,0-.88,0,1.46,1.46,0,0,0-1,1.68,1.43,1.43,0,0,0,1.64,1,8.56,8.56,0,0,0-3.25,2.29,4.56,4.56,0,0,0,1.24,6.28,4.93,4.93,0,0,0,6.39-1.29,2.31,2.31,0,0,0,1.22,2.71c4.78,2.58,7.2-.88,7.86-5C456,341.91,456.93,338.6,452.09,336.23Z"/><path class="cls-14" d="M462.68,337.74a7.09,7.09,0,0,0-4.58-.82,3.57,3.57,0,0,0-2.91,3.29l-2.54-.15a2.6,2.6,0,0,0-.88,0,1.47,1.47,0,0,0-1,1.68,1.45,1.45,0,0,0,1.65,1.05,8.43,8.43,0,0,0-3.25,2.28,4.54,4.54,0,0,0,1.24,6.28,4.9,4.9,0,0,0,6.38-1.29,2.32,2.32,0,0,0,1.23,2.71c4.77,2.59,7.19-.92,7.85-5C466.55,343.47,467.49,340.12,462.68,337.74Z"/><path class="cls-15" d="M462.68,337.74a7.09,7.09,0,0,0-4.58-.82,3.57,3.57,0,0,0-2.91,3.29l-2.54-.15a2.6,2.6,0,0,0-.88,0,1.47,1.47,0,0,0-1,1.68,1.45,1.45,0,0,0,1.65,1.05,8.43,8.43,0,0,0-3.25,2.28,4.54,4.54,0,0,0,1.24,6.28,4.9,4.9,0,0,0,6.38-1.29,2.32,2.32,0,0,0,1.23,2.71c4.77,2.59,7.19-.92,7.85-5C466.55,343.47,467.49,340.12,462.68,337.74Z"/><path class="cls-11" d="M488.6,343.91v94.48a2.28,2.28,0,0,1-2.27,2.27H412.58a2.27,2.27,0,0,1-2.26-2.27V343.91a2.25,2.25,0,0,1,2.26-2.27,2.21,2.21,0,0,1,.91.18q2.82,1.21,5.62,2.25c2.64,1,5.28,1.81,7.92,2.52s5.27,1.3,7.91,1.76,5.28.81,7.92,1,5.28.3,7.91.25,5.28-.21,7.92-.5,5.28-.72,7.92-1.27,5.27-1.21,7.91-2c2.05-.62,4.11-1.32,6.16-2.09q2.37-.88,4.74-1.92a2.27,2.27,0,0,1,3,1.18A2.3,2.3,0,0,1,488.6,343.91Z"/><path class="cls-16" d="M427,346.59V440.7h-7.92V344.07C421.75,345,424.39,345.88,427,346.59Z"/><path class="cls-16" d="M442.86,349.36v91.3h-7.92V348.31A71.6,71.6,0,0,0,442.86,349.36Z"/><path class="cls-16" d="M458.69,349.12v91.54h-7.92v-91Q454.73,349.55,458.69,349.12Z"/><path class="cls-16" d="M474.52,345.83v94.83h-7.91V347.87C469.25,347.32,471.88,346.64,474.52,345.83Z"/><path class="cls-4" d="M488.6,343.91v94.48a2.28,2.28,0,0,1-2.27,2.27h-5.65V343.74q2.37-.89,4.74-1.92a2.27,2.27,0,0,1,3,1.18A2.39,2.39,0,0,1,488.6,343.91Z"/><path class="cls-14" d="M430.91,334.72a7,7,0,0,0-4.59-.82,3.58,3.58,0,0,0-2.91,3.28l-2.54-.15a2.89,2.89,0,0,0-.88,0,1.46,1.46,0,0,0-1,1.68,1.43,1.43,0,0,0,1.64,1.05,8.34,8.34,0,0,0-3.24,2.29,4.53,4.53,0,0,0,1.23,6.28,4.92,4.92,0,0,0,6.38-1.3,2.31,2.31,0,0,0,1.23,2.71c4.77,2.58,7.19-.92,7.85-5C434.78,340.4,435.73,337.09,430.91,334.72Z"/><path class="cls-14" d="M444.1,319.76a7,7,0,0,0-4.58-.81,3.55,3.55,0,0,0-2.91,3.28l-2.55-.15a2.89,2.89,0,0,0-.88,0,1.46,1.46,0,0,0-1,1.68,1.44,1.44,0,0,0,1.64,1.05,8.31,8.31,0,0,0-3.24,2.29,4.55,4.55,0,0,0,1.23,6.28,4.94,4.94,0,0,0,6.39-1.3,2.3,2.3,0,0,0,1.23,2.71c4.76,2.58,7.18-.92,7.84-5C448,325.45,448.92,322.14,444.1,319.76Z"/><path class="cls-14" d="M453.06,340.07a7,7,0,0,0,1.7-4.34,3.58,3.58,0,0,0-2.64-3.52l.64-2.46a2.41,2.41,0,0,0,.13-.88,1.4,1.4,0,1,0-2.79.1,8.35,8.35,0,0,0-1.61-3.62,4.57,4.57,0,0,0-6.41,0,4.94,4.94,0,0,0,0,6.52,2.31,2.31,0,0,0-2.9.68c-3.45,4.17-.49,7.23,3.35,8.67C446.74,342.76,449.8,344.35,453.06,340.07Z"/><path class="cls-14" d="M464.5,340.07a7,7,0,0,0,1.69-4.34,3.56,3.56,0,0,0-2.64-3.52l.65-2.46a2.65,2.65,0,0,0,.13-.88,1.4,1.4,0,0,0-2.8.1,8.35,8.35,0,0,0-1.61-3.62,4.56,4.56,0,0,0-6.4,0,4.94,4.94,0,0,0,0,6.52,2.31,2.31,0,0,0-2.9.68c-3.46,4.17-.5,7.23,3.35,8.67C458.17,342.76,461.23,344.35,464.5,340.07Z"/><path class="cls-14" d="M471.66,347.59a7.11,7.11,0,0,0,.88-4.58,3.6,3.6,0,0,0-3.26-2.95l.19-2.53a3.24,3.24,0,0,0,0-.88,1.4,1.4,0,1,0-2.73.63h0a8.57,8.57,0,0,0-2.25-3.28,4.56,4.56,0,0,0-6.3,1.17,4.92,4.92,0,0,0,1.23,6.4,2.32,2.32,0,0,0-2.73,1.2c-2.63,4.74.88,7.21,4.89,7.92C465.94,351.38,469.25,352.38,471.66,347.59Z"/><path class="cls-14" d="M436.47,333.52a7,7,0,0,0,.88-4.58A3.58,3.58,0,0,0,434.1,326l.18-2.53a2.6,2.6,0,0,0,0-.88,1.4,1.4,0,0,0-1.67-1.05,1.38,1.38,0,0,0-1.05,1.67h0a8.63,8.63,0,0,0-2.26-3.27,4.55,4.55,0,0,0-6.29,1.16,4.92,4.92,0,0,0,1.23,6.41,2.32,2.32,0,0,0-2.73,1.2c-2.64,4.74.88,7.2,4.89,7.92C430.76,337.31,434.06,338.31,436.47,333.52Z"/><path class="cls-14" d="M440,328.67a7.06,7.06,0,0,0-4.59-.83,3.6,3.6,0,0,0-2.91,3.29L430,331a2.88,2.88,0,0,0-.88,0,1.42,1.42,0,1,0,.6,2.77,8.56,8.56,0,0,0-3.25,2.29,4.55,4.55,0,0,0,1.23,6.28,4.93,4.93,0,0,0,6.39-1.3,2.31,2.31,0,0,0,1.23,2.72c4.77,2.57,7.19-.93,7.84-5C443.85,334.35,444.8,331,440,328.67Z"/><path class="cls-15" d="M440,328.67a7.06,7.06,0,0,0-4.59-.83,3.6,3.6,0,0,0-2.91,3.29L430,331a2.88,2.88,0,0,0-.88,0,1.42,1.42,0,1,0,.6,2.77,8.56,8.56,0,0,0-3.25,2.29,4.55,4.55,0,0,0,1.23,6.28,4.93,4.93,0,0,0,6.39-1.3,2.31,2.31,0,0,0,1.23,2.72c4.77,2.57,7.19-.93,7.84-5C443.85,334.35,444.8,331,440,328.67Z"/><path class="cls-14" d="M477.82,331.69a7.05,7.05,0,0,0-4.59-.82,3.57,3.57,0,0,0-2.91,3.28l-2.53-.15a2.88,2.88,0,0,0-.88.05,1.4,1.4,0,0,0,.65,2.73,8.53,8.53,0,0,0-3.25,2.28,4.56,4.56,0,0,0,1.23,6.28,4.93,4.93,0,0,0,6.39-1.29,2.3,2.3,0,0,0,1.23,2.71c4.77,2.58,7.19-.93,7.85-5C481.68,337.37,482.63,334.07,477.82,331.69Z"/><path class="cls-15" d="M477.82,331.69a7.05,7.05,0,0,0-4.59-.82,3.57,3.57,0,0,0-2.91,3.28l-2.53-.15a2.88,2.88,0,0,0-.88.05,1.4,1.4,0,0,0,.65,2.73,8.53,8.53,0,0,0-3.25,2.28,4.56,4.56,0,0,0,1.23,6.28,4.93,4.93,0,0,0,6.39-1.29,2.3,2.3,0,0,0,1.23,2.71c4.77,2.58,7.19-.93,7.85-5C481.68,337.37,482.63,334.07,477.82,331.69Z"/><path class="cls-14" d="M455,316.74a7,7,0,0,0-4.59-.82,3.58,3.58,0,0,0-2.91,3.28l-2.53-.15a2.88,2.88,0,0,0-.88.05,1.47,1.47,0,0,0-1,1.68,1.45,1.45,0,0,0,1.65,1,8.56,8.56,0,0,0-3.25,2.29,4.57,4.57,0,0,0,1.23,6.28,4.94,4.94,0,0,0,6.39-1.29,2.3,2.3,0,0,0,1.23,2.71c4.77,2.57,7.2-.93,7.85-5C458.81,322.42,459.76,319.11,455,316.74Z"/><path class="cls-15" d="M455,316.74a7,7,0,0,0-4.59-.82,3.58,3.58,0,0,0-2.91,3.28l-2.53-.15a2.88,2.88,0,0,0-.88.05,1.47,1.47,0,0,0-1,1.68,1.45,1.45,0,0,0,1.65,1,8.56,8.56,0,0,0-3.25,2.29,4.57,4.57,0,0,0,1.23,6.28,4.94,4.94,0,0,0,6.39-1.29,2.3,2.3,0,0,0,1.23,2.71c4.77,2.57,7.2-.93,7.85-5C458.81,322.42,459.76,319.11,455,316.74Z"/><path class="cls-14" d="M437.36,311.46a7.05,7.05,0,0,0-4.59-.82,3.58,3.58,0,0,0-2.91,3.28l-2.53-.15a2.88,2.88,0,0,0-.88.05,1.4,1.4,0,0,0,.65,2.73,8.53,8.53,0,0,0-3.25,2.28,4.56,4.56,0,0,0,1.23,6.28,4.93,4.93,0,0,0,6.39-1.29,2.3,2.3,0,0,0,1.23,2.71c4.77,2.58,7.19-.93,7.85-5C441.22,317.14,442.17,313.84,437.36,311.46Z"/><path class="cls-15" d="M437.36,311.46a7.05,7.05,0,0,0-4.59-.82,3.58,3.58,0,0,0-2.91,3.28l-2.53-.15a2.88,2.88,0,0,0-.88.05,1.4,1.4,0,0,0,.65,2.73,8.53,8.53,0,0,0-3.25,2.28,4.56,4.56,0,0,0,1.23,6.28,4.93,4.93,0,0,0,6.39-1.29,2.3,2.3,0,0,0,1.23,2.71c4.77,2.58,7.19-.93,7.85-5C441.22,317.14,442.17,313.84,437.36,311.46Z"/><path class="cls-14" d="M456.71,307.94a7,7,0,0,0-4.59-.81,3.58,3.58,0,0,0-2.91,3.28l-2.53-.15a2.88,2.88,0,0,0-.88,0,1.4,1.4,0,0,0,.65,2.73,8.53,8.53,0,0,0-3.25,2.28,4.56,4.56,0,0,0,1.23,6.28,4.93,4.93,0,0,0,6.39-1.29,2.3,2.3,0,0,0,1.23,2.71c4.77,2.58,7.2-.92,7.85-5C460.57,313.62,461.52,310.32,456.71,307.94Z"/><path class="cls-15" d="M456.71,307.94a7,7,0,0,0-4.59-.81,3.58,3.58,0,0,0-2.91,3.28l-2.53-.15a2.88,2.88,0,0,0-.88,0,1.4,1.4,0,0,0,.65,2.73,8.53,8.53,0,0,0-3.25,2.28,4.56,4.56,0,0,0,1.23,6.28,4.93,4.93,0,0,0,6.39-1.29,2.3,2.3,0,0,0,1.23,2.71c4.77,2.58,7.2-.92,7.85-5C460.57,313.62,461.52,310.32,456.71,307.94Z"/><path class="cls-14" d="M463.75,313.22a7.05,7.05,0,0,0-4.59-.82,3.56,3.56,0,0,0-2.91,3.28l-2.54-.15a2.9,2.9,0,0,0-.88.05,1.46,1.46,0,0,0-1,1.68,1.44,1.44,0,0,0,1.64,1,8.6,8.6,0,0,0-3.24,2.29,4.55,4.55,0,0,0,1.23,6.28,4.93,4.93,0,0,0,6.39-1.29,2.3,2.3,0,0,0,1.23,2.71c4.76,2.57,7.19-.93,7.84-5C467.61,318.9,468.56,315.6,463.75,313.22Z"/><path class="cls-15" d="M463.75,313.22a7.05,7.05,0,0,0-4.59-.82,3.56,3.56,0,0,0-2.91,3.28l-2.54-.15a2.9,2.9,0,0,0-.88.05,1.46,1.46,0,0,0-1,1.68,1.44,1.44,0,0,0,1.64,1,8.6,8.6,0,0,0-3.24,2.29,4.55,4.55,0,0,0,1.23,6.28,4.93,4.93,0,0,0,6.39-1.29,2.3,2.3,0,0,0,1.23,2.71c4.76,2.57,7.19-.93,7.84-5C467.61,318.9,468.56,315.6,463.75,313.22Z"/><path class="cls-14" d="M420.65,331.69a7.05,7.05,0,0,0-4.59-.82,3.57,3.57,0,0,0-2.91,3.28l-2.54-.15a2.9,2.9,0,0,0-.88.05,1.41,1.41,0,0,0,.66,2.73,8.53,8.53,0,0,0-3.25,2.28,4.55,4.55,0,0,0,1.23,6.28,4.93,4.93,0,0,0,6.39-1.29,2.3,2.3,0,0,0,1.23,2.71c4.77,2.58,7.19-.93,7.84-5C424.51,337.37,425.46,334.07,420.65,331.69Z"/><path class="cls-15" d="M420.65,331.69a7.05,7.05,0,0,0-4.59-.82,3.57,3.57,0,0,0-2.91,3.28l-2.54-.15a2.9,2.9,0,0,0-.88.05,1.41,1.41,0,0,0,.66,2.73,8.53,8.53,0,0,0-3.25,2.28,4.55,4.55,0,0,0,1.23,6.28,4.93,4.93,0,0,0,6.39-1.29,2.3,2.3,0,0,0,1.23,2.71c4.77,2.58,7.19-.93,7.84-5C424.51,337.37,425.46,334.07,420.65,331.69Z"/><path class="cls-14" d="M471.66,319.38a7,7,0,0,0-4.59-.82,3.58,3.58,0,0,0-2.91,3.28l-2.53-.15a2.89,2.89,0,0,0-.88,0,1.46,1.46,0,0,0-1,1.68,1.43,1.43,0,0,0,1.64,1,8.56,8.56,0,0,0-3.25,2.29,4.56,4.56,0,0,0,1.24,6.28,4.93,4.93,0,0,0,6.38-1.29,2.31,2.31,0,0,0,1.23,2.7c4.77,2.58,7.2-.92,7.85-5C475.53,325.06,476.48,321.75,471.66,319.38Z"/><path class="cls-15" d="M471.66,319.38a7,7,0,0,0-4.59-.82,3.58,3.58,0,0,0-2.91,3.28l-2.53-.15a2.89,2.89,0,0,0-.88,0,1.46,1.46,0,0,0-1,1.68,1.43,1.43,0,0,0,1.64,1,8.56,8.56,0,0,0-3.25,2.29,4.56,4.56,0,0,0,1.24,6.28,4.93,4.93,0,0,0,6.38-1.29,2.31,2.31,0,0,0,1.23,2.7c4.77,2.58,7.2-.92,7.85-5C475.53,325.06,476.48,321.75,471.66,319.38Z"/><path class="cls-14" d="M488.38,328.17a7.16,7.16,0,0,0-4.6-.82,3.6,3.6,0,0,0-2.91,3.29l-2.53-.15a2.89,2.89,0,0,0-.88,0,1.46,1.46,0,0,0-1,1.68,1.44,1.44,0,0,0,1.64,1.05,8.5,8.5,0,0,0-3.24,2.28,4.55,4.55,0,0,0,1.23,6.28,4.92,4.92,0,0,0,6.38-1.29,2.32,2.32,0,0,0,1.23,2.71c4.77,2.58,7.2-.92,7.85-5C492.24,333.85,493.19,330.55,488.38,328.17Z"/><path class="cls-15" d="M488.38,328.17a7.16,7.16,0,0,0-4.6-.82,3.6,3.6,0,0,0-2.91,3.29l-2.53-.15a2.89,2.89,0,0,0-.88,0,1.46,1.46,0,0,0-1,1.68,1.44,1.44,0,0,0,1.64,1.05,8.5,8.5,0,0,0-3.24,2.28,4.55,4.55,0,0,0,1.23,6.28,4.92,4.92,0,0,0,6.38-1.29,2.32,2.32,0,0,0,1.23,2.71c4.77,2.58,7.2-.92,7.85-5C492.24,333.85,493.19,330.55,488.38,328.17Z"/><path class="cls-14" d="M474.3,308.82a7.12,7.12,0,0,0-4.59-.82,3.6,3.6,0,0,0-2.91,3.29l-2.53-.15a2.88,2.88,0,0,0-.88,0,1.47,1.47,0,0,0-1,1.68,1.45,1.45,0,0,0,1.65,1.05,8.53,8.53,0,0,0-3.25,2.28,4.57,4.57,0,0,0,1.23,6.28,4.93,4.93,0,0,0,6.39-1.29,2.3,2.3,0,0,0,1.23,2.71c4.77,2.58,7.2-.92,7.85-5C478.16,314.5,479.11,311.2,474.3,308.82Z"/><path class="cls-15" d="M474.3,308.82a7.12,7.12,0,0,0-4.59-.82,3.6,3.6,0,0,0-2.91,3.29l-2.53-.15a2.88,2.88,0,0,0-.88,0,1.47,1.47,0,0,0-1,1.68,1.45,1.45,0,0,0,1.65,1.05,8.53,8.53,0,0,0-3.25,2.28,4.57,4.57,0,0,0,1.23,6.28,4.93,4.93,0,0,0,6.39-1.29,2.3,2.3,0,0,0,1.23,2.71c4.77,2.58,7.2-.92,7.85-5C478.16,314.5,479.11,311.2,474.3,308.82Z"/><path class="cls-14" d="M486.61,330a7.11,7.11,0,0,0,.88-4.58,3.6,3.6,0,0,0-3.26-2.95l.19-2.53a3.24,3.24,0,0,0,0-.88,1.4,1.4,0,0,0-2.73.63,8.46,8.46,0,0,0-2.25-3.28,4.57,4.57,0,0,0-6.3,1.16,5,5,0,0,0,1.23,6.41,2.3,2.3,0,0,0-2.72,1.2c-2.64,4.74.88,7.21,4.89,7.92C480.89,333.79,484.2,334.79,486.61,330Z"/><path class="cls-14" d="M486.61,315.93a7.11,7.11,0,0,0,.88-4.58,3.59,3.59,0,0,0-3.26-3l.19-2.53a3.24,3.24,0,0,0,0-.88,1.4,1.4,0,0,0-2.73.62h0a8.5,8.5,0,0,0-2.25-3.27,4.57,4.57,0,0,0-6.3,1.16,4.93,4.93,0,0,0,1.23,6.4,2.31,2.31,0,0,0-2.72,1.21c-2.64,4.74.88,7.2,4.89,7.92C480.89,319.72,484.2,320.71,486.61,315.93Z"/><path class="cls-14" d="M471.66,334.4a7.11,7.11,0,0,0,.88-4.58,3.59,3.59,0,0,0-3.26-2.95l.19-2.53a3.24,3.24,0,0,0,0-.88,1.4,1.4,0,0,0-2.73.62,8.61,8.61,0,0,0-2.25-3.27,4.57,4.57,0,0,0-6.3,1.16,4.93,4.93,0,0,0,1.23,6.41,2.32,2.32,0,0,0-2.73,1.2c-2.63,4.74.88,7.2,4.89,7.92C465.94,338.19,469.25,339.19,471.66,334.4Z"/><path class="cls-14" d="M488.37,350.23a7.11,7.11,0,0,0,.88-4.58A3.6,3.6,0,0,0,486,342.7l.19-2.53a3.24,3.24,0,0,0,0-.88,1.4,1.4,0,0,0-2.73.63h0a8.46,8.46,0,0,0-2.25-3.28,4.57,4.57,0,0,0-6.3,1.16,5,5,0,0,0,1.23,6.41,2.3,2.3,0,0,0-2.72,1.2c-2.64,4.74.88,7.21,4.89,7.92C482.65,354,486,355,488.37,350.23Z"/><path class="cls-14" d="M456.7,356.39a7,7,0,0,0,.88-4.58,3.57,3.57,0,0,0-3.25-2.95l.18-2.53a2.6,2.6,0,0,0,0-.88,1.39,1.39,0,1,0-2.72.62h0a8.63,8.63,0,0,0-2.26-3.27,4.55,4.55,0,0,0-6.29,1.16,4.91,4.91,0,0,0,1.23,6.4,2.33,2.33,0,0,0-2.73,1.21c-2.64,4.74.88,7.2,4.89,7.92C451,360.18,454.29,361.17,456.7,356.39Z"/><path class="cls-14" d="M449.67,320.33a7.14,7.14,0,0,0,.88-4.59,3.58,3.58,0,0,0-3.26-2.94l.19-2.53a3.24,3.24,0,0,0,0-.88,1.4,1.4,0,1,0-2.73.62h0a8.5,8.5,0,0,0-2.25-3.27,4.56,4.56,0,0,0-6.3,1.16,4.93,4.93,0,0,0,1.23,6.4,2.31,2.31,0,0,0-2.72,1.21c-2.64,4.74.87,7.2,4.89,7.91C444,324.12,447.26,325.11,449.67,320.33Z"/><path class="cls-14" d="M468.14,315.93a7.11,7.11,0,0,0,.88-4.58,3.59,3.59,0,0,0-3.26-3l.19-2.53a3.24,3.24,0,0,0,0-.88,1.4,1.4,0,0,0-2.73.62h0a8.5,8.5,0,0,0-2.25-3.27,4.57,4.57,0,0,0-6.3,1.16,4.93,4.93,0,0,0,1.23,6.4,2.31,2.31,0,0,0-2.72,1.21c-2.64,4.74.88,7.2,4.89,7.92C462.42,319.72,465.73,320.71,468.14,315.93Z"/><path class="cls-14" d="M431.2,332.64a7.11,7.11,0,0,0,.88-4.58,3.6,3.6,0,0,0-3.26-2.95l.19-2.53a3.24,3.24,0,0,0,0-.88,1.41,1.41,0,0,0-1.68-1.05,1.4,1.4,0,0,0-1.05,1.67h0a8.61,8.61,0,0,0-2.25-3.27,4.57,4.57,0,0,0-6.3,1.16,4.93,4.93,0,0,0,1.23,6.41,2.32,2.32,0,0,0-2.73,1.2c-2.63,4.74.88,7.2,4.9,7.92C425.48,336.43,428.79,337.43,431.2,332.64Z"/><path class="cls-12" d="M417.18,373c4.58-.37,9.09-1.54,13.68-1.48,6,.08,11.79,2.25,17.26,4.73a13.51,13.51,0,0,1,4.34,2.71,9.19,9.19,0,0,1,2.1,7.67,20,20,0,0,1-3.15,7.55c-1.6,2.54-3.58,5.05-6.37,6.15a15.4,15.4,0,0,1-4.85.84c-6.88.38-13.9,0-20.44-2.21-3.35-1.14-6.52-2.74-9.8-4.1-10.46-4.33-21.77-6-32.88-8.21a3.4,3.4,0,0,1-1.57-.61c-2.31-2,2.71-9.19,3.89-11.21,2-3.42,3.79-3.79,7.82-3.88C397.27,370.68,407.1,373.61,417.18,373Z"/><path class="cls-12" d="M495.44,397.32c-3.18-1.56-6-3.73-9.2-5.35a31,31,0,0,0-12.82-3.41c-2.89-.13-6,.26-8.14,2.26-3,2.85-2.64,7.69-1.65,11.71,1.49,6,4.5,12.4,10.28,14.68a23.37,23.37,0,0,0,7,1.21c10.71.73,21.85,1.4,31.77-2.64a3.25,3.25,0,0,0,1.76-1.35,3.32,3.32,0,0,0-.44-2.82c-1.58-3.19-4.09-9.86-7.15-11.85C504,397.85,499,399.07,495.44,397.32Z"/><path class="cls-4" d="M520.59,349.42A149.21,149.21,0,0,1,535,379a24.69,24.69,0,0,1,1.76,8c0,3.05-1.07,6-2.19,8.89a236.59,236.59,0,0,1-12.36,26.95c-1.41,2.64-3,5.39-5.81,6.84s-6.53,1.3-9.88.88a191.31,191.31,0,0,1-24.93-4.41c5.16.16,9.82-3.71,12.21-7.92s2.91-9,3.3-13.74a20.74,20.74,0,0,0-.31-7.61,8.27,8.27,0,0,0-5.12-5.67c-.24-2.29,1.95-4.22,4.21-5.28s4.83-1.64,6.67-3.22c2.71-2.33,3.1-6.21,2.21-9.49s-2.83-6.27-4.2-9.42c-1.92-4.4,8-9,8.41-13.78.09-1.07-.67.88,0,0s4.82,2.17,5.76,1.76C520.88,349.11,517.17,344,520.59,349.42Z"/><path class="cls-13" d="M522.51,349.42A150.3,150.3,0,0,1,536.89,379a24.18,24.18,0,0,1,1.76,8,25.16,25.16,0,0,1-2.17,8.89,238.4,238.4,0,0,1-12.37,26.95c-1.4,2.64-3,5.39-5.8,6.84s-6.55,1.3-9.89.88a189.64,189.64,0,0,1-24.93-4.41c5.15.16,9.82-3.71,12.2-7.92s2.92-9,3.31-13.74a21,21,0,0,0-.32-7.61,8.3,8.3,0,0,0-5.11-5.67c-.25-2.29,1.95-4.22,4.21-5.28s4.83-1.64,6.67-3.22c2.7-2.33,3.08-6.21,2.19-9.49s-2.82-6.27-4.19-9.42a29.29,29.29,0,0,1-2.34-14,5.91,5.91,0,0,1,.93-3.08A6,6,0,0,1,503.5,345C509.71,342.31,519.09,344,522.51,349.42Z"/><path class="cls-4" d="M334.5,340.7c-5.71,5.28-11.6,10.85-14.38,18.13-1.52,4-2,8.24-2.51,12.46-.83,7.19-1.57,14.9,1.76,21.32,3.69,7,11.43,10.81,18.7,14a51.3,51.3,0,0,0,7.78,2.92,54.49,54.49,0,0,0,10.64,1.3l36.67,2c-4.78-4.82-7.84-12.36-7.19-19.13.59-6,3.52-11.58,6.46-16.87,1.53-2.72,3.27-5.59,6.09-6.94a118.16,118.16,0,0,0-36.41-2.28,2.58,2.58,0,0,1-2.3-.56,2.15,2.15,0,0,1-.35-1.38c0-5.46,4.08-10,5.77-15.19,2.7-8.32-6.49-3.75-14.76-6.61S336.19,332.11,334.5,340.7Z"/><path class="cls-13" d="M331.86,340.7c-5.71,5.28-11.6,10.85-14.38,18.13-1.52,4-2,8.24-2.51,12.46-.83,7.19-1.57,14.9,1.76,21.32,3.69,7,11.43,10.81,18.7,14a51.3,51.3,0,0,0,7.78,2.92,54.5,54.5,0,0,0,10.65,1.3l36.66,2c-4.78-4.82-7.84-12.36-7.19-19.13.59-6,3.52-11.58,6.46-16.87,1.54-2.72,3.27-5.59,6.09-6.94a118.16,118.16,0,0,0-36.41-2.28,2.58,2.58,0,0,1-2.3-.56,2.15,2.15,0,0,1-.35-1.38c0-5.46,4.08-10,5.77-15.19,2.7-8.32-2-18.47-10.27-21.34S333.55,332.11,331.86,340.7Z"/><ellipse class="cls-8" cx="423.95" cy="227.81" rx="44.42" ry="18.47"/><path class="cls-4" d="M423.07,238.36c-21.26,0-39-6.22-43.39-14.51a8.4,8.4,0,0,0-1,4c0,10.2,19.89,18.47,44.42,18.47s44.42-8.27,44.42-18.47a8.52,8.52,0,0,0-1-4C462.09,232.14,444.33,238.36,423.07,238.36Z"/><path class="cls-14" d="M483.1,240.22a7,7,0,0,0-4.59-.82,3.56,3.56,0,0,0-2.91,3.28l-2.54-.15a2.89,2.89,0,0,0-.88,0,1.46,1.46,0,0,0-1,1.68,1.44,1.44,0,0,0,1.64,1.05,8.6,8.6,0,0,0-3.24,2.29,4.55,4.55,0,0,0,1.23,6.28,4.93,4.93,0,0,0,6.39-1.3,2.29,2.29,0,0,0,1.23,2.71c4.76,2.58,7.19-.92,7.84-5C487,245.9,487.91,242.59,483.1,240.22Z"/><path class="cls-15" d="M483.1,240.22a7,7,0,0,0-4.59-.82,3.56,3.56,0,0,0-2.91,3.28l-2.54-.15a2.89,2.89,0,0,0-.88,0,1.46,1.46,0,0,0-1,1.68,1.44,1.44,0,0,0,1.64,1.05,8.6,8.6,0,0,0-3.24,2.29,4.55,4.55,0,0,0,1.23,6.28,4.93,4.93,0,0,0,6.39-1.3,2.29,2.29,0,0,0,1.23,2.71c4.76,2.58,7.19-.92,7.84-5C487,245.9,487.91,242.59,483.1,240.22Z"/><path class="cls-14" d="M525.32,307.06a7.06,7.06,0,0,0-4.59-.81,3.56,3.56,0,0,0-2.91,3.28l-2.54-.15a2.89,2.89,0,0,0-.88,0,1.4,1.4,0,0,0,.65,2.73,8.5,8.5,0,0,0-3.24,2.28,4.55,4.55,0,0,0,1.23,6.28,4.91,4.91,0,0,0,6.38-1.29,2.31,2.31,0,0,0,1.24,2.71c4.76,2.58,7.19-.92,7.84-5C529.18,312.75,530.13,309.44,525.32,307.06Z"/><path class="cls-15" d="M525.32,307.06a7.06,7.06,0,0,0-4.59-.81,3.56,3.56,0,0,0-2.91,3.28l-2.54-.15a2.89,2.89,0,0,0-.88,0,1.4,1.4,0,0,0,.65,2.73,8.5,8.5,0,0,0-3.24,2.28,4.55,4.55,0,0,0,1.23,6.28,4.91,4.91,0,0,0,6.38-1.29,2.31,2.31,0,0,0,1.24,2.71c4.76,2.58,7.19-.92,7.84-5C529.18,312.75,530.13,309.44,525.32,307.06Z"/><path class="cls-14" d="M574.57,378.31a7,7,0,0,0-4.59-.82,3.58,3.58,0,0,0-2.91,3.28l-2.53-.15a2.88,2.88,0,0,0-.88.05,1.47,1.47,0,0,0-1,1.68,1.45,1.45,0,0,0,1.65,1,8.56,8.56,0,0,0-3.25,2.29,4.57,4.57,0,0,0,1.23,6.28,4.94,4.94,0,0,0,6.39-1.29,2.28,2.28,0,0,0,1.23,2.7c4.77,2.58,7.2-.92,7.85-5C578.43,384,579.38,380.68,574.57,378.31Z"/><path class="cls-15" d="M574.57,378.31a7,7,0,0,0-4.59-.82,3.58,3.58,0,0,0-2.91,3.28l-2.53-.15a2.88,2.88,0,0,0-.88.05,1.47,1.47,0,0,0-1,1.68,1.45,1.45,0,0,0,1.65,1,8.56,8.56,0,0,0-3.25,2.29,4.57,4.57,0,0,0,1.23,6.28,4.94,4.94,0,0,0,6.39-1.29,2.28,2.28,0,0,0,1.23,2.7c4.77,2.58,7.2-.92,7.85-5C578.43,384,579.38,380.68,574.57,378.31Z"/><path class="cls-14" d="M498.92,220.94a7,7,0,0,0,.88-4.59,3.56,3.56,0,0,0-3.25-2.94l.18-2.54a2.54,2.54,0,0,0,0-.87,1.39,1.39,0,1,0-2.72.62h0a8.63,8.63,0,0,0-2.26-3.27,4.54,4.54,0,0,0-6.29,1.16,4.91,4.91,0,0,0,1.23,6.4,2.33,2.33,0,0,0-2.73,1.21c-2.64,4.74.88,7.2,4.89,7.91C493.2,224.73,496.51,225.72,498.92,220.94Z"/><path class="cls-14" d="M493.64,190.15a7,7,0,0,0,.88-4.58,3.58,3.58,0,0,0-3.25-2.95l.18-2.53a2.6,2.6,0,0,0,0-.88,1.39,1.39,0,1,0-2.72.62h0a8.72,8.72,0,0,0-2.25-3.27,4.57,4.57,0,0,0-6.3,1.16,4.93,4.93,0,0,0,1.23,6.41,2.32,2.32,0,0,0-2.73,1.2c-2.64,4.74.88,7.21,4.89,7.92C487.93,193.94,491.23,194.94,493.64,190.15Z"/><path class="cls-14" d="M361.72,443.4a7,7,0,0,0-4.59-.82,3.57,3.57,0,0,0-2.91,3.28l-2.54-.15a2.6,2.6,0,0,0-.88,0,1.4,1.4,0,0,0,.65,2.73,8.58,8.58,0,0,0-3.24,2.28,4.55,4.55,0,0,0,1.23,6.28,4.93,4.93,0,0,0,6.39-1.29,2.3,2.3,0,0,0,1.23,2.71c4.76,2.58,7.19-.88,7.84-5C365.58,449.08,366.53,445.77,361.72,443.4Z"/><path class="cls-15" d="M361.72,443.4a7,7,0,0,0-4.59-.82,3.57,3.57,0,0,0-2.91,3.28l-2.54-.15a2.6,2.6,0,0,0-.88,0,1.4,1.4,0,0,0,.65,2.73,8.58,8.58,0,0,0-3.24,2.28,4.55,4.55,0,0,0,1.23,6.28,4.93,4.93,0,0,0,6.39-1.29,2.3,2.3,0,0,0,1.23,2.71c4.76,2.58,7.19-.88,7.84-5C365.58,449.08,366.53,445.77,361.72,443.4Z"/><path class="cls-14" d="M330.05,441.71a7.14,7.14,0,0,0,.88-4.59,3.58,3.58,0,0,0-3.26-2.94l.19-2.54a3.24,3.24,0,0,0,0-.88,1.4,1.4,0,1,0-2.73.63,8.61,8.61,0,0,0-2.25-3.27,4.56,4.56,0,0,0-6.3,1.16,4.93,4.93,0,0,0,1.23,6.4,2.3,2.3,0,0,0-2.72,1.21c-2.64,4.74.87,7.2,4.89,7.91C324.33,445.5,327.64,446.49,330.05,441.71Z"/><path class="cls-14" d="M372.27,393.33a7,7,0,0,0,.87-4.58,3.58,3.58,0,0,0-3.25-2.95l.19-2.53a3.24,3.24,0,0,0,0-.88,1.41,1.41,0,0,0-1.68-1.05,1.4,1.4,0,0,0-1,1.67h0a8.72,8.72,0,0,0-2.25-3.27,4.57,4.57,0,0,0-6.3,1.16,4.93,4.93,0,0,0,1.23,6.41,2.32,2.32,0,0,0-2.73,1.2c-2.63,4.74.88,7.2,4.89,7.92C366.55,397.12,369.86,398.12,372.27,393.33Z"/><path class="cls-2" d="M304.69,409.3c-8.57-2.19-17.49-4.39-26.14-2.64-3.85.79-7.5,2.34-11.24,3.52a64.33,64.33,0,0,1-55.19-8.24c-9-6.2-18.29-15.24-28.92-12.79-2.85.67-5.5,2.17-8.42,2.49-5.48.63-10.56-2.93-16-3.76-9.36-1.44-17.87,5.13-25.06,11.28L95.79,431.63c-2.87,2.46-6,5.71-5.27,9.41,1.17,5.42,9.48,6.16,11.61,11.3,1.55,3.69-1,8-4.39,10.08s-7.49,2.64-11.29,3.91A35.09,35.09,0,0,0,63.34,492c-.67,3.15-.88,6.42-2.12,9.39-1.34,3.24-3.76,5.89-5.54,8.9-7.81,13.11-2.69,30.5-8.61,44.55-3.14,7.46-9.43,14.67-7.45,22.51,1.82,7.11,9.62,10.74,16.72,12.62.83,4.84-.88,8.25-4.4,11.73,29.51,12.13,61.18,24.51,92.48,18.31,10.74-2.12,21.2-6.42,32.14-6.25,7.77.13,15.45,2.52,23.2,2,16.35-1.15,31.36-15.12,47.2-10.93-4.77.33-6.54,7.31-3.73,11.19s8,5.12,12.77,5.58,9.81.49,13.95,2.92c-3.14,6.51-14.35,8.79-13.27,16,.4,2.59,2.49,4.55,4.57,6.16,21.33,16.33,50.7,14.76,77.4,17.59,19.68,2.06,39,6.87,58.6,9.44,31.35,4.09,63.13,2.41,94.69.73,5.72-.31,12.15-.95,15.83-5.34,4.89-5.86,2.17-14.54,1.56-22.14-2.4-29.74,30.13-50.21,39.24-78.62,3.52-11.09,3.37-23,2.74-34.64-1.42-26.25-5.52-53.94-22.25-74.2-13.78-16.71-34.37-26.13-54.87-33-13.05-4.4-26.73-8-40.46-6.72-23.05,2.17-46.33,17.91-67.6,8.79-5.63-2.41-10.43-6.39-15.77-9.36C336.3,411.19,320.35,413.31,304.69,409.3Z"/><g class="cls-17"><path d="M423.69,650.75c-19.62-2.57-38.88-7.35-58.6-9.44-26.72-2.79-56.1-1.23-77.4-17.59-2.08-1.59-4.17-3.52-4.57-6.15-1.08-7.15,10.13-9.45,13.27-16-4.14-2.43-9.18-2.45-13.95-2.92s-9.95-1.7-12.77-5.57-1-10.87,3.73-11.19c-15.83-4.2-30.85,9.78-47.2,10.93-7.75.55-15.43-1.85-23.2-2-10.94-.18-21.4,4.13-32.14,6.24-31.3,6.16-63-6.15-92.48-18.31,3.47-3.52,5.2-6.88,4.4-11.72-7.08-1.88-14.89-5.52-16.72-12.62-2-7.84,4.3-15.05,7.44-22.51,5.93-14.07.81-31.45,8.62-44.55,1.75-3,4.2-5.67,5.54-8.9,1.22-3,1.45-6.25,2.12-9.4a31.77,31.77,0,0,1,1.14-4.06c-1.48.4-3,.77-4.4,1.25A35.07,35.07,0,0,0,63.41,492c-.67,3.15-.88,6.42-2.12,9.4-1.34,3.23-3.76,5.89-5.54,8.9-7.81,13.1-2.69,30.49-8.61,44.55-3.14,7.46-9.43,14.67-7.45,22.5,1.82,7.11,9.62,10.74,16.72,12.63.83,4.83-.88,8.25-4.4,11.72,29.52,12.13,61.18,24.51,92.48,18.31,10.74-2.12,21.2-6.42,32.14-6.24,7.77.12,15.45,2.51,23.2,2,16.35-1.15,31.36-15.13,47.2-10.93-4.77.32-6.54,7.31-3.73,11.18s8,5.12,12.77,5.58,9.81.49,13.95,2.92c-3.13,6.52-14.35,8.8-13.27,16,.4,2.59,2.49,4.55,4.57,6.16,21.33,16.33,50.7,14.77,77.4,17.59,19.68,2.06,39,6.87,58.6,9.44,31.35,4.09,63.13,2.42,94.69.73,5.72-.31,12.15-.94,15.83-5.34,3.83-4.59,3-10.91,2.16-17.09C481.18,653.42,452.25,654.48,423.69,650.75Z"/><path d="M100.87,450.37a34,34,0,0,1,12-6.9c3.8-1.23,7.91-1.82,11.28-3.91s6-6.39,4.4-10.08c-2.14-5.11-10.45-5.87-11.62-11.3-.54-2.5.74-4.8,2.52-6.78L95.78,431.63c-2.87,2.46-6,5.71-5.27,9.41C91.54,445.68,97.75,446.92,100.87,450.37Z"/></g><path class="cls-14" d="M180.52,432.91a7,7,0,0,0,.88-4.58,3.58,3.58,0,0,0-3.25-2.95l.18-2.53a2.89,2.89,0,0,0,0-.88,1.41,1.41,0,0,0-1.68-1.05,1.4,1.4,0,0,0-1.05,1.67,8.5,8.5,0,0,0-2.25-3.27,4.57,4.57,0,0,0-6.3,1.16,5,5,0,0,0,1.23,6.41,2.3,2.3,0,0,0-2.72,1.2c-2.64,4.74.88,7.2,4.89,7.92C174.8,436.7,178.11,437.7,180.52,432.91Z"/><path class="cls-14" d="M308.94,603.55a7.14,7.14,0,0,0,.88-4.59,3.58,3.58,0,0,0-3.26-2.94l.19-2.54a3.24,3.24,0,0,0,0-.88,1.4,1.4,0,0,0-2.73.63h0a8.5,8.5,0,0,0-2.25-3.27,4.55,4.55,0,0,0-6.3,1.16,4.93,4.93,0,0,0,1.23,6.4,2.3,2.3,0,0,0-2.72,1.21c-2.64,4.74.88,7.2,4.89,7.91C303.22,607.34,306.53,608.33,308.94,603.55Z"/><path class="cls-14" d="M396.89,435.55a7,7,0,0,0,.88-4.58,3.57,3.57,0,0,0-3.25-3l.18-2.53a2.6,2.6,0,0,0,0-.88,1.39,1.39,0,1,0-2.72.62,8.63,8.63,0,0,0-2.26-3.27,4.55,4.55,0,0,0-6.29,1.16,4.91,4.91,0,0,0,1.23,6.4,2.33,2.33,0,0,0-2.73,1.21c-2.64,4.74.88,7.2,4.89,7.92C391.18,439.34,394.48,440.33,396.89,435.55Z"/><path class="cls-14" d="M413.44,433.61a7,7,0,0,0,3.39-3.19,3.57,3.57,0,0,0-.88-4.29l1.63-1.95a3,3,0,0,0,.51-.76,1.4,1.4,0,1,0-2.58-1.1h0a8.46,8.46,0,0,0,.1-4,4.57,4.57,0,0,0-5.79-2.75,4.92,4.92,0,0,0-2.75,5.9,2.33,2.33,0,0,0-2.91-.63c-4.91,2.3-3.52,6.32-.67,9.26C406.57,433.34,408.66,436.08,413.44,433.61Z"/><path class="cls-14" d="M222.75,438.12a7,7,0,0,0-4.59-.82,3.56,3.56,0,0,0-2.91,3.28l-2.54-.15a3.24,3.24,0,0,0-.88,0,1.4,1.4,0,0,0,.65,2.73,8.58,8.58,0,0,0-3.24,2.28,4.55,4.55,0,0,0,1.23,6.28,4.93,4.93,0,0,0,6.39-1.29,2.3,2.3,0,0,0,1.23,2.71c4.76,2.58,7.19-.88,7.84-5C226.61,443.8,227.56,440.49,222.75,438.12Z"/><path class="cls-15" d="M222.75,438.12a7,7,0,0,0-4.59-.82,3.56,3.56,0,0,0-2.91,3.28l-2.54-.15a3.24,3.24,0,0,0-.88,0,1.4,1.4,0,0,0,.65,2.73,8.58,8.58,0,0,0-3.24,2.28,4.55,4.55,0,0,0,1.23,6.28,4.93,4.93,0,0,0,6.39-1.29,2.3,2.3,0,0,0,1.23,2.71c4.76,2.58,7.19-.88,7.84-5C226.61,443.8,227.56,440.49,222.75,438.12Z"/><path class="cls-14" d="M301.06,503.55a7.06,7.06,0,0,0-.75-4.6,3.57,3.57,0,0,0-4.07-1.65l-.71-2.44a3.06,3.06,0,0,0-.35-.88,1.4,1.4,0,1,0-2.35,1.53,8.65,8.65,0,0,0-3.23-2.31,4.57,4.57,0,0,0-5.52,3.27,4.92,4.92,0,0,0,3.36,5.58,2.33,2.33,0,0,0-2.15,2.07c-.88,5.36,3.28,6.47,7.31,5.73C297,509.05,300.43,508.83,301.06,503.55Z"/><path class="cls-15" d="M301.06,503.55a7.06,7.06,0,0,0-.75-4.6,3.57,3.57,0,0,0-4.07-1.65l-.71-2.44a3.06,3.06,0,0,0-.35-.88,1.4,1.4,0,1,0-2.35,1.53,8.65,8.65,0,0,0-3.23-2.31,4.57,4.57,0,0,0-5.52,3.27,4.92,4.92,0,0,0,3.36,5.58,2.33,2.33,0,0,0-2.15,2.07c-.88,5.36,3.28,6.47,7.31,5.73C297,509.05,300.43,508.83,301.06,503.55Z"/><path class="cls-14" d="M406.61,423.51a7.12,7.12,0,0,0-.75-4.6,3.58,3.58,0,0,0-4.08-1.65l-.7-2.44a3.06,3.06,0,0,0-.35-.88,1.4,1.4,0,1,0-2.35,1.53h0a8.6,8.6,0,0,0-3.24-2.31,4.57,4.57,0,0,0-5.51,3.27A4.92,4.92,0,0,0,393,422a2.32,2.32,0,0,0-2.15,2.07c-.88,5.36,3.27,6.47,7.31,5.73C402.55,429,406,428.79,406.61,423.51Z"/><path class="cls-15" d="M406.61,423.51a7.12,7.12,0,0,0-.75-4.6,3.58,3.58,0,0,0-4.08-1.65l-.7-2.44a3.06,3.06,0,0,0-.35-.88,1.4,1.4,0,1,0-2.35,1.53h0a8.6,8.6,0,0,0-3.24-2.31,4.57,4.57,0,0,0-5.51,3.27A4.92,4.92,0,0,0,393,422a2.32,2.32,0,0,0-2.15,2.07c-.88,5.36,3.27,6.47,7.31,5.73C402.55,429,406,428.79,406.61,423.51Z"/></g></g></svg>