<svg xmlns="http://www.w3.org/2000/svg" viewBox="0 0 83.33 83.33"><defs><style>.cls-1{fill:#dbe2ef;}.cls-2{fill:none;stroke:#dbe2ef;stroke-miterlimit:10;stroke-width:3.79px;}</style></defs><title>Logo</title><g id="Layer_2" data-name="Layer 2"><g id="Layer_1-2" data-name="Layer 1"><path class="cls-1" d="M66.37,25.35v5.08H16.92V25.35ZM16.92,58V52.9H58a3.85,3.85,0,0,0,2.8-1.24,4.36,4.36,0,0,0,.85-1.35,4.26,4.26,0,0,0,.32-1.7,4.33,4.33,0,0,0-.32-1.68,4.73,4.73,0,0,0-.85-1.4,4,4,0,0,0-1.27-1A3.43,3.43,0,0,0,58,44.23H16.92V39.15H58l0,0a7.52,7.52,0,0,1,3.24.72,8.53,8.53,0,0,1,2.68,2,9.49,9.49,0,0,1,1.83,3,10.35,10.35,0,0,1,.67,3.75,10.13,10.13,0,0,1-.67,3.73,9.5,9.5,0,0,1-1.83,3,8.53,8.53,0,0,1-2.68,2A7.52,7.52,0,0,1,58,58Z"/><circle class="cls-2" cx="41.66" cy="41.66" r="39.77"/></g></g></svg>