<svg xmlns="http://www.w3.org/2000/svg" viewBox="0 0 683.22 471.52"><defs><style>.cls-1{fill:#e6e6e6;}.cls-2{fill:#fff;}.cls-3{fill:#141012;}.cls-4{fill:#ffb8b8;}.cls-5{fill:#e5e5e5;}</style></defs><title>man</title><g id="Layer_2" data-name="Layer 2"><g id="Layer_1-2" data-name="Layer 1"><rect class="cls-1" x="0.21" y="0.28" width="496.54" height="318.01" rx="6.16"/><rect class="cls-2" x="14.41" y="40.17" width="468.14" height="259.31" rx="6.16"/><path class="cls-3" d="M6.16,0H490.38a6.16,6.16,0,0,1,6.16,6.16V21.09H0V6.16A6.16,6.16,0,0,1,6.16,0Z"/><circle class="cls-2" cx="15.68" cy="10.78" r="3.91"/><circle class="cls-2" cx="30.52" cy="10.78" r="3.91"/><circle class="cls-2" cx="45.36" cy="10.78" r="3.91"/><rect class="cls-3" x="54.24" y="79.98" width="264.93" height="149.03" rx="6.16"/><rect class="cls-3" x="356.14" y="79.98" width="100.89" height="56.75" rx="6.16"/><rect class="cls-3" x="356.14" y="154.68" width="100.89" height="56.75" rx="6.16"/><rect class="cls-3" x="356.14" y="229.39" width="100.89" height="56.75" rx="6.16"/><rect class="cls-3" x="54.24" y="254.03" width="182.53" height="12.32" rx="6.16"/><path class="cls-2" d="M212.12,149.16l-39.28-22.68a6.16,6.16,0,0,0-9.24,5.33v45.36a6.16,6.16,0,0,0,9.24,5.33l39.28-22.67a6.16,6.16,0,0,0,0-10.67l-39.28-22.68a6.16,6.16,0,0,0-9.24,5.33v45.36a6.16,6.16,0,0,0,9.24,5.33l39.28-22.67A6.16,6.16,0,0,0,212.12,149.16Z"/><polygon class="cls-4" points="593.18 438.88 595.55 450.75 583.69 453.12 585.47 438.29 593.18 438.88"/><polygon class="cls-4" points="641.75 436.72 639.06 450.16 628.01 450.42 631.54 434.04 641.75 436.72"/><path class="cls-3" d="M659.36,298.7l3.09,20.8s-3.09,46.21-3.86,48.52-3.08,13.86-3.08,13.86l-13.09,55.45s-11.33,1.54-13.64-4.62l.55-33.12-.77-37.73-9.24-43.13-16.18,58.53s-.77,19.25-3.08,26.18-5.39,37-5.39,37-9.79,2.31-10.56,0-4.84-57-4.84-65.46-4.53-89.7-4.53-89.7Z"/><path class="cls-5" d="M631.56,449.39a9.55,9.55,0,0,0,3.84,0c1.45-.48,0-3.37,0-3.37h5.3s5.77,13,8.17,14,10.1,11.55,1,11.55A29.94,29.94,0,0,1,634,466.71s-1-4.33-5.29-4.81-7.21-5.78-7.21-5.78l4.69-8.67a1.57,1.57,0,0,1,2.12-.62,1.52,1.52,0,0,1,.61.62C629.54,448.6,630.44,449.61,631.56,449.39Z"/><path class="cls-5" d="M591.3,447.9s-1.07,2.15-2.15,1.07a14.69,14.69,0,0,1-2.14-3.75s-3.22-1.61-3.76,0-2.68,10.19-3.75,11.26-12.34,12.34-1.07,14.49,13.41-2.69,13.41-2.69a2.44,2.44,0,0,1,1.61-3.75c3.21-1.07,3.75-4.83,3.75-4.83l-1.62-12.12a1.32,1.32,0,0,0-1.48-1.13,1.35,1.35,0,0,0-.87.52C592.61,447.78,591.91,448.31,591.3,447.9Z"/><path class="cls-4" d="M677.08,244.79l2.31,40s10.78,25.42-3.85,24.65-5.39-25.42-5.39-25.42l-14.33-35.74Z"/><path class="cls-4" d="M558.47,233.24l-2.31,40.05S545.38,298.7,560,297.93s5.4-25.41,5.4-25.41l14.32-35.74Z"/><circle class="cls-4" cx="620.09" cy="126.19" r="20.02"/><path class="cls-4" d="M635.88,134.27s-5.4,21.57,5.39,27-33.89,13.09-37,0l1.54-6.16s6.16-7.7,4.62-14.63Z"/><path class="cls-1" d="M623.94,161.62s-13.29,1.24-17.43-7.47c0,0-31.09,2.07-38,30.57,8,.23,18,91.77,4.84,100.89-10.71,7.41,18.46,18.81,59.08,19.25l30.81-1.54c-5.75-4.94-19.49-69.35-10.79-68.54,0,0,23.11-36.2,20.8-41.59s-6-26.65-35.74-35.27C637.49,157.92,637,162.39,623.94,161.62Z"/><path class="cls-1" d="M663.22,180.1l10,13.09s10,54.68,6.93,55.45-21.57,6.93-24.65,4.62-16.94-47.75-16.94-47.75Z"/><path class="cls-1" d="M581.58,176.25l-13.09,8.47s-19.26,53.91-13.87,56.22,35.43.77,35.43.77Z"/><path class="cls-3" d="M642,108.27s-6.93-15-20.22-11.56-20.81,8.67-21.39,13.87a73.91,73.91,0,0,0,.29,13s1.44-10.69,10.69-8.38,23.7.58,23.7.58l2.31,20.81s2.6-3.76,5.49-1.45S651.22,112.89,642,108.27Z"/></g></g></svg>